<svg width="515" height="36" viewBox="0 0 515 36" fill="none" xmlns="http://www.w3.org/2000/svg">
<g clip-path="url(#clip0_104_61)">
<path d="M15.3516 27.875L23.3906 0.875001H31.2188L19.3359 35H14.1797L15.3516 27.875ZM7.94531 0.875001L15.9609 27.875L17.1797 35H11.9766L0.164062 0.875001H7.94531ZM39.0938 0.875001L46.2188 16.4375L53.3438 0.875001H61.0078L49.7812 22.5781V35H42.6562V22.5781L31.4062 0.875001H39.0938ZM74.9062 6.71094L65.625 35H58.1484L70.8281 0.875001H75.5859L74.9062 6.71094ZM82.6172 35L73.3125 6.71094L72.5625 0.875001H77.3672L90.1172 35H82.6172ZM82.1953 22.2969V27.8047H64.1719V22.2969H82.1953ZM112.641 23.6797H119.648C119.508 25.9766 118.875 28.0156 117.75 29.7969C116.641 31.5781 115.086 32.9688 113.086 33.9688C111.102 34.9688 108.711 35.4688 105.914 35.4688C103.727 35.4688 101.766 35.0938 100.031 34.3438C98.2969 33.5781 96.8125 32.4844 95.5781 31.0625C94.3594 29.6406 93.4297 27.9219 92.7891 25.9062C92.1484 23.8906 91.8281 21.6328 91.8281 19.1328V16.7656C91.8281 14.2656 92.1562 12.0078 92.8125 9.99219C93.4844 7.96094 94.4375 6.23438 95.6719 4.8125C96.9219 3.39062 98.4141 2.29688 100.148 1.53125C101.883 0.765625 103.82 0.382812 105.961 0.382812C108.805 0.382812 111.203 0.898438 113.156 1.92969C115.125 2.96094 116.648 4.38281 117.727 6.19531C118.82 8.00781 119.477 10.0703 119.695 12.3828H112.664C112.586 11.0078 112.312 9.84375 111.844 8.89062C111.375 7.92188 110.664 7.19531 109.711 6.71094C108.773 6.21094 107.523 5.96094 105.961 5.96094C104.789 5.96094 103.766 6.17969 102.891 6.61719C102.016 7.05469 101.281 7.71875 100.688 8.60938C100.094 9.5 99.6484 10.625 99.3516 11.9844C99.0703 13.3281 98.9297 14.9062 98.9297 16.7188V19.1328C98.9297 20.8984 99.0625 22.4531 99.3281 23.7969C99.5938 25.125 100 26.25 100.547 27.1719C101.109 28.0781 101.828 28.7656 102.703 29.2344C103.594 29.6875 104.664 29.9141 105.914 29.9141C107.383 29.9141 108.594 29.6797 109.547 29.2109C110.5 28.7422 111.227 28.0469 111.727 27.125C112.242 26.2031 112.547 25.0547 112.641 23.6797ZM147.023 14.7734V20.2578H129.211V14.7734H147.023ZM131.297 0.875001V35H124.266V0.875001H131.297ZM152.039 0.875001V35H145.031V0.875001H152.039ZM181.055 29.5156V35H162.891V29.5156H181.055ZM165.188 0.875001V35H158.156V0.875001H165.188ZM178.688 14.7734V20.1172H162.891V14.7734H178.688ZM181.031 0.875001V6.38281H162.891V0.875001H181.031ZM202.922 26.0703C202.922 25.4609 202.828 24.9141 202.641 24.4297C202.469 23.9297 202.141 23.4766 201.656 23.0703C201.172 22.6484 200.492 22.2344 199.617 21.8281C198.742 21.4219 197.609 21 196.219 20.5625C194.672 20.0625 193.203 19.5 191.812 18.875C190.438 18.25 189.219 17.5234 188.156 16.6953C187.109 15.8516 186.281 14.875 185.672 13.7656C185.078 12.6562 184.781 11.3672 184.781 9.89844C184.781 8.47656 185.094 7.1875 185.719 6.03125C186.344 4.85938 187.219 3.85937 188.344 3.03125C189.469 2.1875 190.797 1.53906 192.328 1.08594C193.875 0.632812 195.57 0.406251 197.414 0.406251C199.93 0.406251 202.125 0.859375 204 1.76562C205.875 2.67188 207.328 3.91406 208.359 5.49219C209.406 7.07031 209.93 8.875 209.93 10.9062H202.945C202.945 9.90625 202.734 9.03125 202.312 8.28125C201.906 7.51562 201.281 6.91406 200.438 6.47656C199.609 6.03906 198.562 5.82031 197.297 5.82031C196.078 5.82031 195.062 6.00781 194.25 6.38281C193.438 6.74219 192.828 7.23437 192.422 7.85938C192.016 8.46875 191.812 9.15625 191.812 9.92188C191.812 10.5 191.953 11.0234 192.234 11.4922C192.531 11.9609 192.969 12.3984 193.547 12.8047C194.125 13.2109 194.836 13.5938 195.68 13.9531C196.523 14.3125 197.5 14.6641 198.609 15.0078C200.469 15.5703 202.102 16.2031 203.508 16.9062C204.93 17.6094 206.117 18.3984 207.07 19.2734C208.023 20.1484 208.742 21.1406 209.227 22.25C209.711 23.3594 209.953 24.6172 209.953 26.0234C209.953 27.5078 209.664 28.8359 209.086 30.0078C208.508 31.1797 207.672 32.1719 206.578 32.9844C205.484 33.7969 204.18 34.4141 202.664 34.8359C201.148 35.2578 199.453 35.4688 197.578 35.4688C195.891 35.4688 194.227 35.25 192.586 34.8125C190.945 34.3594 189.453 33.6797 188.109 32.7734C186.781 31.8672 185.719 30.7109 184.922 29.3047C184.125 27.8984 183.727 26.2344 183.727 24.3125H190.781C190.781 25.375 190.945 26.2734 191.273 27.0078C191.602 27.7422 192.062 28.3359 192.656 28.7891C193.266 29.2422 193.984 29.5703 194.812 29.7734C195.656 29.9766 196.578 30.0781 197.578 30.0781C198.797 30.0781 199.797 29.9062 200.578 29.5625C201.375 29.2188 201.961 28.7422 202.336 28.1328C202.727 27.5234 202.922 26.8359 202.922 26.0703ZM236.672 29.5156V35H219.492V29.5156H236.672ZM221.766 0.875001V35H214.734V0.875001H221.766ZM255.047 6.71094L245.766 35H238.289L250.969 0.875001H255.727L255.047 6.71094ZM262.758 35L253.453 6.71094L252.703 0.875001H257.508L270.258 35H262.758ZM262.336 22.2969V27.8047H244.312V22.2969H262.336ZM283.805 27.875L291.844 0.875001H299.672L287.789 35H282.633L283.805 27.875ZM276.398 0.875001L284.414 27.875L285.633 35H280.43L268.617 0.875001H276.398ZM332.578 26.0703C332.578 25.4609 332.484 24.9141 332.297 24.4297C332.125 23.9297 331.797 23.4766 331.312 23.0703C330.828 22.6484 330.148 22.2344 329.273 21.8281C328.398 21.4219 327.266 21 325.875 20.5625C324.328 20.0625 322.859 19.5 321.469 18.875C320.094 18.25 318.875 17.5234 317.812 16.6953C316.766 15.8516 315.938 14.875 315.328 13.7656C314.734 12.6562 314.438 11.3672 314.438 9.89844C314.438 8.47656 314.75 7.1875 315.375 6.03125C316 4.85938 316.875 3.85937 318 3.03125C319.125 2.1875 320.453 1.53906 321.984 1.08594C323.531 0.632812 325.227 0.406251 327.07 0.406251C329.586 0.406251 331.781 0.859375 333.656 1.76562C335.531 2.67188 336.984 3.91406 338.016 5.49219C339.062 7.07031 339.586 8.875 339.586 10.9062H332.602C332.602 9.90625 332.391 9.03125 331.969 8.28125C331.562 7.51562 330.938 6.91406 330.094 6.47656C329.266 6.03906 328.219 5.82031 326.953 5.82031C325.734 5.82031 324.719 6.00781 323.906 6.38281C323.094 6.74219 322.484 7.23437 322.078 7.85938C321.672 8.46875 321.469 9.15625 321.469 9.92188C321.469 10.5 321.609 11.0234 321.891 11.4922C322.188 11.9609 322.625 12.3984 323.203 12.8047C323.781 13.2109 324.492 13.5938 325.336 13.9531C326.18 14.3125 327.156 14.6641 328.266 15.0078C330.125 15.5703 331.758 16.2031 333.164 16.9062C334.586 17.6094 335.773 18.3984 336.727 19.2734C337.68 20.1484 338.398 21.1406 338.883 22.25C339.367 23.3594 339.609 24.6172 339.609 26.0234C339.609 27.5078 339.32 28.8359 338.742 30.0078C338.164 31.1797 337.328 32.1719 336.234 32.9844C335.141 33.7969 333.836 34.4141 332.32 34.8359C330.805 35.2578 329.109 35.4688 327.234 35.4688C325.547 35.4688 323.883 35.25 322.242 34.8125C320.602 34.3594 319.109 33.6797 317.766 32.7734C316.438 31.8672 315.375 30.7109 314.578 29.3047C313.781 27.8984 313.383 26.2344 313.383 24.3125H320.438C320.438 25.375 320.602 26.2734 320.93 27.0078C321.258 27.7422 321.719 28.3359 322.312 28.7891C322.922 29.2422 323.641 29.5703 324.469 29.7734C325.312 29.9766 326.234 30.0781 327.234 30.0781C328.453 30.0781 329.453 29.9062 330.234 29.5625C331.031 29.2188 331.617 28.7422 331.992 28.1328C332.383 27.5234 332.578 26.8359 332.578 26.0703ZM358.266 6.71094L348.984 35H341.508L354.188 0.875001H358.945L358.266 6.71094ZM365.977 35L356.672 6.71094L355.922 0.875001H360.727L373.477 35H365.977ZM365.555 22.2969V27.8047H347.531V22.2969H365.555ZM387.023 27.875L395.062 0.875001H402.891L391.008 35H385.852L387.023 27.875ZM379.617 0.875001L387.633 27.875L388.852 35H383.648L371.836 0.875001H379.617ZM413.555 0.875001V35H406.547V0.875001H413.555ZM447.914 0.875001V35H440.883L427.172 12.125V35H420.141V0.875001H427.172L440.906 23.7734V0.875001H447.914ZM482.062 17.1406V18.7578C482.062 21.3516 481.711 23.6797 481.008 25.7422C480.305 27.8047 479.312 29.5625 478.031 31.0156C476.75 32.4531 475.219 33.5547 473.438 34.3203C471.672 35.0859 469.711 35.4688 467.555 35.4688C465.414 35.4688 463.453 35.0859 461.672 34.3203C459.906 33.5547 458.375 32.4531 457.078 31.0156C455.781 29.5625 454.773 27.8047 454.055 25.7422C453.352 23.6797 453 21.3516 453 18.7578V17.1406C453 14.5312 453.352 12.2031 454.055 10.1562C454.758 8.09375 455.75 6.33594 457.031 4.88281C458.328 3.42969 459.859 2.32031 461.625 1.55469C463.406 0.789062 465.367 0.406251 467.508 0.406251C469.664 0.406251 471.625 0.789062 473.391 1.55469C475.172 2.32031 476.703 3.42969 477.984 4.88281C479.281 6.33594 480.281 8.09375 480.984 10.1562C481.703 12.2031 482.062 14.5312 482.062 17.1406ZM474.961 18.7578V17.0938C474.961 15.2812 474.797 13.6875 474.469 12.3125C474.141 10.9375 473.656 9.78125 473.016 8.84375C472.375 7.90625 471.594 7.20312 470.672 6.73438C469.75 6.25 468.695 6.00781 467.508 6.00781C466.32 6.00781 465.266 6.25 464.344 6.73438C463.438 7.20312 462.664 7.90625 462.023 8.84375C461.398 9.78125 460.922 10.9375 460.594 12.3125C460.266 13.6875 460.102 15.2812 460.102 17.0938V18.7578C460.102 20.5547 460.266 22.1484 460.594 23.5391C460.922 24.9141 461.406 26.0781 462.047 27.0312C462.688 27.9688 463.469 28.6797 464.391 29.1641C465.312 29.6484 466.367 29.8906 467.555 29.8906C468.742 29.8906 469.797 29.6484 470.719 29.1641C471.641 28.6797 472.414 27.9688 473.039 27.0312C473.664 26.0781 474.141 24.9141 474.469 23.5391C474.797 22.1484 474.961 20.5547 474.961 18.7578ZM498.914 27.875L506.953 0.875001H514.781L502.898 35H497.742L498.914 27.875ZM491.508 0.875001L499.523 27.875L500.742 35H495.539L483.727 0.875001H491.508Z" fill="white"/>
</g>
<defs>
<clipPath id="clip0_104_61">
<rect width="515" height="36" fill="white"/>
</clipPath>
</defs>
</svg>
