<svg width="62" height="62" viewBox="0 0 62 62" fill="none" xmlns="http://www.w3.org/2000/svg">
<g opacity="0.8" clip-path="url(#clip0_103_135)">
<path d="M31 62C37.1312 62 43.1248 60.1819 48.2227 56.7756C53.3206 53.3693 57.294 48.5277 59.6403 42.8632C61.9866 37.1987 62.6005 30.9656 61.4044 24.9522C60.2082 18.9388 57.2557 13.4151 52.9203 9.07971C48.5849 4.74428 43.0612 1.79182 37.0478 0.595678C31.0344 -0.600464 24.8013 0.0134394 19.1368 2.35976C13.4723 4.70607 8.63077 8.67942 5.22444 13.7773C1.81812 18.8753 0 24.8688 0 31C0 39.2217 3.26606 47.1067 9.07969 52.9203C14.8933 58.734 22.7783 62 31 62ZM34.9959 13.33L39.4041 17.67L26.0741 31.1364L39.37 44.2959L35.03 48.7041L17.3166 31.1953L34.9959 13.33Z" fill="#F2E0E0"/>
</g>
<defs>
<clipPath id="clip0_103_135">
<rect width="62" height="62" fill="white"/>
</clipPath>
</defs>
</svg>
