<svg width="62" height="62" viewBox="0 0 62 62" fill="none" xmlns="http://www.w3.org/2000/svg">
<g opacity="0.8" clip-path="url(#clip0_103_137)">
<path d="M31 -1.41542e-05C24.8688 -1.46902e-05 18.8752 1.81811 13.7773 5.22443C8.6794 8.63075 4.70605 13.4723 2.35973 19.1368C0.0134157 24.8013 -0.600488 31.0344 0.595652 37.0478C1.7918 43.0612 4.74426 48.5849 9.07969 52.9203C13.4151 57.2557 18.9388 60.2082 24.9522 61.4043C30.9656 62.6005 37.1987 61.9866 42.8632 59.6402C48.5277 57.2939 53.3692 53.3206 56.7756 48.2227C60.1819 43.1247 62 37.1312 62 31C62 22.7783 58.7339 14.8933 52.9203 9.07968C47.1067 3.26605 39.2217 -1.34354e-05 31 -1.41542e-05ZM27.0041 48.67L22.5959 44.33L35.9259 30.8636L22.63 17.7041L26.97 13.2959L44.6834 30.8047L27.0041 48.67Z" fill="#F2E0E0"/>
</g>
<defs>
<clipPath id="clip0_103_137">
<rect width="62" height="62" fill="white" transform="translate(62 62) rotate(-180)"/>
</clipPath>
</defs>
</svg>
