<svg width="100" height="100" viewBox="0 0 100 100" fill="none" xmlns="http://www.w3.org/2000/svg">
<g clip-path="url(#clip0_104_42)">
<path d="M50.015 100.03C77.6375 100.03 100.03 77.6375 100.03 50.015C100.03 22.3925 77.6375 0 50.015 0C22.3925 0 0 22.3925 0 50.015C0 77.6375 22.3925 100.03 50.015 100.03Z" fill="#FFFCFC"/>
<path fill-rule="evenodd" clip-rule="evenodd" d="M48.8449 18.2418C45.1845 18.7219 42.7243 19.5019 39.934 21.6622C38.7039 22.6223 37.8638 23.4923 36.9037 24.7525C36.0336 25.8626 35.2235 27.3627 34.6835 28.7129C32.5233 34.3534 33.6934 40.024 37.1137 44.7345C38.6139 46.7747 41.8242 49.1449 44.1944 49.955C46.5647 50.7651 48.4849 51.1551 51.2451 51.0051C62.8263 50.285 70.087 37.6838 64.6265 27.0327C64.1164 26.0426 63.6064 25.3525 63.0063 24.5424C59.976 20.402 53.8254 17.5817 48.8449 18.2418ZM48.9049 27.9328C45.0645 28.7129 42.7543 32.0732 43.3244 35.7036C43.8644 39.0339 47.1047 42.0642 51.2151 41.3441C57.1857 40.294 58.7459 32.7033 54.2454 29.2829C52.9853 28.3228 50.9451 27.5127 48.9049 27.9328Z" fill="black"/>
<path fill-rule="evenodd" clip-rule="evenodd" d="M41.6442 79.778C42.3642 79.0579 49.625 71.7672 50.045 71.4972C50.495 71.7672 51.1251 72.4873 51.5452 72.9073L58.7759 80.168C59.766 81.1881 60.9361 81.9082 63.0663 81.8182C64.6865 81.3982 65.8866 80.7681 66.6367 79.358C66.8767 78.9379 67.0867 78.4279 67.1767 77.8878C67.6868 75.0975 65.8566 73.6274 64.7465 72.4873C64.1764 71.9172 57.0357 64.9265 56.7657 64.4765C59.946 63.6964 62.5863 62.5863 65.1365 61.1461C66.5167 60.3961 67.5368 59.766 68.0768 58.2059C69.3069 54.8155 66.6967 51.6052 63.4563 51.6952C61.5662 51.7552 60.7261 52.7153 59.3459 53.3754C53.0453 56.2857 46.6547 56.3157 40.444 53.1953C39.1539 52.5353 38.0138 51.5152 36.1536 51.6352C32.5833 51.8152 30.7531 55.5356 32.0132 58.4159C32.6733 59.886 33.6634 60.4261 35.0435 61.2062C37.5038 62.6463 40.294 63.7264 43.3543 64.4765C43.0843 64.8965 35.8236 72.0372 35.2535 72.6073C34.0834 73.7474 32.3132 75.1875 32.8833 78.0678C33.7534 82.5683 38.4638 82.9883 41.6442 79.778Z" fill="black"/>
</g>
<defs>
<clipPath id="clip0_104_42">
<rect width="100" height="100" fill="white"/>
</clipPath>
</defs>
</svg>
