<svg width="100" height="100" viewBox="0 0 100 100" fill="none" xmlns="http://www.w3.org/2000/svg">
<path d="M50 2C23.49 2 2 23.49 2 50C2 76.51 23.49 98 50 98C76.51 98 98 76.51 98 50C98 23.49 76.51 2 50 2ZM68.46 56.155C68.46 56.155 72.705 60.345 73.75 62.29C73.78 62.33 73.795 62.37 73.805 62.39C74.23 63.105 74.33 63.66 74.12 64.075C73.77 64.765 72.57 65.105 72.16 65.135C72.16 65.135 64.87 65.135 64.66 65.135C64.14 65.135 63.05 65 61.73 64.09C60.715 63.38 59.715 62.215 58.74 61.08C57.285 59.39 56.025 57.93 54.755 57.93C54.595 57.93 54.43 57.955 54.28 58.005C53.32 58.315 52.09 59.685 52.09 63.335C52.09 64.475 51.19 65.13 50.555 65.13C50.555 65.13 47.28 65.13 47.12 65.13C45.95 65.13 39.855 64.72 34.455 59.025C27.845 52.05 21.895 38.06 21.845 37.93C21.47 37.025 22.245 36.54 23.09 36.54H30.665C31.675 36.54 32.005 37.155 32.235 37.7C32.505 38.335 33.495 40.86 35.12 43.7C37.755 48.33 39.37 50.21 40.665 50.21C40.91 50.21 41.135 50.145 41.36 50.03C43.05 49.09 42.735 43.065 42.66 41.815C42.66 41.58 42.655 39.12 41.79 37.94C41.17 37.085 40.115 36.76 39.475 36.64C39.64 36.395 40.01 36.02 40.47 35.795C41.63 35.215 43.72 35.13 45.795 35.13H46.95C49.2 35.16 49.78 35.305 50.595 35.51C52.245 35.905 52.28 36.97 52.135 40.615C52.09 41.65 52.045 42.82 52.045 44.2C52.045 44.5 52.03 44.82 52.03 45.16C51.98 47.015 51.92 49.12 53.23 49.985C53.4 50.09 53.595 50.15 53.8 50.15C54.255 50.15 55.625 50.15 59.335 43.785C60.96 40.975 62.22 37.66 62.31 37.415C62.385 37.285 62.605 36.885 62.865 36.73C63.07 36.61 63.345 36.585 63.485 36.585H72.39C73.36 36.585 74.025 36.73 74.15 37.105C74.37 37.7 74.11 39.515 70.045 45.02C69.36 45.93 68.755 46.725 68.23 47.415C64.545 52.245 64.545 52.49 68.46 56.155Z" fill="white"/>
</svg>
